<svg xmlns="http://www.w3.org/2000/svg" viewBox="0 0 79 79" shape-rendering="crispEdges"><path fill="#ffffff" d="M0 0h79v79H0z"/><path stroke="#000000" d="M1 1.5h7m3 0h1m1 0h2m2 0h1m2 0h1m3 0h2m7 0h2m4 0h1m3 0h2m2 0h7m1 0h1m1 0h2m1 0h1m2 0h2m6 0h7M1 2.5h1m5 0h1m1 0h4m2 0h1m1 0h1m2 0h5m1 0h1m3 0h3m3 0h2m1 0h2m1 0h2m2 0h1m1 0h3m2 0h2m4 0h1m4 0h4m1 0h1m1 0h1m5 0h1M1 3.5h1m1 0h3m1 0h1m5 0h1m1 0h1m3 0h2m2 0h1m1 0h3m3 0h1m1 0h1m1 0h1m1 0h2m1 0h1m4 0h1m2 0h1m2 0h4m1 0h2m1 0h1m4 0h2m3 0h1m1 0h1m1 0h3m1 0h1M1 4.5h1m1 0h3m1 0h1m1 0h3m3 0h1m1 0h1m3 0h6m2 0h1m2 0h1m1 0h1m1 0h2m1 0h1m1 0h1m4 0h6m2 0h1m2 0h1m2 0h2m1 0h1m2 0h1m2 0h1m1 0h1m1 0h3m1 0h1M1 5.5h1m1 0h3m1 0h1m7 0h1m1 0h1m1 0h1m1 0h10m1 0h2m1 0h1m2 0h3m1 0h3m2 0h6m2 0h4m2 0h2m1 0h2m1 0h3m1 0h1m1 0h3m1 0h1M1 6.5h1m5 0h1m1 0h1m2 0h1m3 0h1m3 0h2m2 0h2m3 0h4m1 0h4m2 0h8m3 0h1m7 0h1m2 0h2m2 0h2m3 0h1m5 0h1M1 7.5h7m1 0h1m1 0h1m1 0h1m1 0h1m1 0h1m1 0h1m1 0h1m1 0h1m1 0h1m1 0h1m1 0h1m1 0h1m1 0h1m1 0h1m1 0h1m1 0h1m1 0h1m1 0h1m1 0h1m1 0h1m1 0h1m1 0h1m1 0h1m1 0h1m1 0h1m1 0h1m1 0h1m1 0h1m1 0h1m1 0h1m1 0h1m1 0h7M10 8.5h3m3 0h2m1 0h1m2 0h4m3 0h3m1 0h1m2 0h3m3 0h1m1 0h1m2 0h1m3 0h1m4 0h3m2 0h1m1 0h1m1 0h1m1 0h1M1 9.5h5m1 0h3m1 0h3m1 0h1m1 0h1m1 0h2m4 0h10m4 0h6m1 0h6m1 0h1m2 0h1m1 0h3m1 0h2m1 0h1m3 0h2m1 0h1m1 0h1m1 0h1M3 10.5h2m1 0h1m1 0h1m2 0h1m2 0h7m1 0h1m3 0h1m1 0h2m3 0h2m1 0h4m2 0h1m4 0h2m3 0h3m1 0h4m1 0h1m1 0h4m1 0h1m1 0h1m1 0h2m1 0h2M1 11.5h5m1 0h2m1 0h1m1 0h1m3 0h1m5 0h2m1 0h1m2 0h1m2 0h2m2 0h1m4 0h5m6 0h1m3 0h1m2 0h1m1 0h1m1 0h1m3 0h2m1 0h3m1 0h2m1 0h1M8 12.5h3m3 0h2m2 0h1m2 0h2m3 0h1m3 0h2m1 0h1m4 0h4m1 0h6m2 0h2m3 0h3m4 0h2m3 0h1m1 0h1m2 0h3M1 13.5h2m2 0h1m1 0h1m1 0h1m2 0h1m1 0h1m7 0h2m1 0h1m1 0h1m4 0h1m1 0h1m1 0h1m1 0h1m2 0h1m1 0h1m1 0h1m1 0h1m1 0h1m1 0h4m3 0h1m1 0h2m2 0h1m2 0h1m1 0h1m3 0h2m1 0h2M1 14.5h1m2 0h1m1 0h1m2 0h2m2 0h2m1 0h1m1 0h2m3 0h3m1 0h2m2 0h1m1 0h1m1 0h1m1 0h3m2 0h1m1 0h3m2 0h2m1 0h1m2 0h3m6 0h1m1 0h2m3 0h1m2 0h1m1 0h2M2 15.5h3m2 0h2m1 0h1m2 0h4m2 0h5m1 0h2m1 0h1m1 0h3m8 0h3m2 0h2m3 0h1m1 0h1m1 0h1m1 0h1m1 0h1m5 0h5m3 0h2m1 0h2M3 16.5h4m3 0h1m1 0h1m1 0h1m2 0h1m3 0h2m2 0h4m1 0h3m1 0h3m1 0h2m2 0h5m3 0h1m1 0h1m5 0h1m1 0h6m1 0h2m1 0h1m3 0h1m1 0h1M2 17.5h1m3 0h4m1 0h2m1 0h1m1 0h1m8 0h1m3 0h1m2 0h2m3 0h2m1 0h1m1 0h2m1 0h3m1 0h1m5 0h4m1 0h1m2 0h1m9 0h3m1 0h1M1 18.5h4m1 0h1m1 0h1m1 0h2m1 0h1m1 0h1m5 0h1m1 0h1m2 0h7m2 0h1m4 0h2m1 0h2m1 0h1m1 0h1m1 0h6m4 0h1m1 0h2m1 0h1m5 0h2m1 0h1m1 0h1M4 19.5h1m2 0h1m6 0h4m1 0h1m2 0h1m2 0h1m2 0h1m2 0h1m1 0h2m3 0h1m7 0h7m4 0h1m2 0h3m1 0h5m1 0h1m2 0h1m1 0h1M2 20.5h3m3 0h1m1 0h1m3 0h1m5 0h6m2 0h1m10 0h1m2 0h1m1 0h1m1 0h3m1 0h1m1 0h3m2 0h3m1 0h1m2 0h1m4 0h3m1 0h2M2 21.5h1m1 0h2m1 0h2m1 0h3m1 0h2m1 0h2m2 0h3m4 0h6m1 0h1m1 0h1m1 0h2m2 0h3m1 0h1m1 0h2m3 0h2m2 0h1m2 0h3m3 0h1m1 0h2m3 0h2M2 22.5h1m2 0h2m1 0h1m1 0h4m4 0h1m2 0h1m2 0h3m1 0h1m2 0h1m2 0h1m2 0h4m2 0h1m1 0h3m1 0h1m3 0h3m1 0h1m3 0h2m1 0h2m2 0h1m1 0h2m1 0h2m1 0h2M1 23.5h2m1 0h1m1 0h2m1 0h1m1 0h2m1 0h4m1 0h1m1 0h3m1 0h1m1 0h1m1 0h1m2 0h5m2 0h1m4 0h2m1 0h2m1 0h1m1 0h2m1 0h1m7 0h2m1 0h2m2 0h5m2 0h1M5 24.5h2m8 0h1m4 0h2m2 0h1m4 0h5m4 0h1m3 0h1m1 0h3m2 0h1m5 0h1m1 0h2m3 0h1m1 0h1m1 0h2m2 0h4m1 0h3M2 25.5h1m2 0h5m1 0h1m1 0h2m1 0h2m1 0h2m4 0h6m2 0h4m1 0h1m2 0h3m1 0h7m1 0h2m4 0h1m1 0h1m6 0h7M3 26.5h3m3 0h1m1 0h5m1 0h1m1 0h3m1 0h1m1 0h1m3 0h1m2 0h2m1 0h1m2 0h2m3 0h1m1 0h1m1 0h1m3 0h3m1 0h1m2 0h3m1 0h3m2 0h1m1 0h1m3 0h3m1 0h1M2 27.5h4m1 0h1m1 0h8m3 0h2m2 0h2m1 0h1m1 0h2m1 0h1m1 0h1m2 0h2m3 0h1m2 0h1m1 0h1m1 0h1m1 0h4m6 0h1m3 0h5m1 0h1m1 0h1m1 0h1m1 0h1M3 28.5h3m3 0h4m4 0h1m2 0h1m1 0h4m3 0h2m2 0h1m1 0h1m2 0h1m3 0h1m2 0h1m1 0h1m3 0h4m2 0h2m2 0h1m2 0h2m1 0h3m3 0h2m2 0h1M2 29.5h1m2 0h5m1 0h1m2 0h1m2 0h13m1 0h2m3 0h1m2 0h1m1 0h1m2 0h8m2 0h1m3 0h1m4 0h1m3 0h1m1 0h5m1 0h1M1 30.5h2m2 0h2m1 0h1m5 0h1m1 0h3m3 0h1m1 0h1m4 0h2m1 0h2m1 0h1m2 0h1m1 0h3m4 0h1m1 0h2m1 0h5m2 0h4m3 0h4m1 0h1M4 31.5h2m1 0h2m1 0h2m1 0h3m1 0h1m1 0h3m4 0h2m1 0h4m1 0h5m1 0h1m1 0h5m3 0h1m2 0h2m1 0h2m4 0h3m2 0h8m1 0h2M5 32.5h2m1 0h1m2 0h2m1 0h2m4 0h2m2 0h3m1 0h3m1 0h1m1 0h3m1 0h1m2 0h3m2 0h4m1 0h2m1 0h5m1 0h2m3 0h3m1 0h1m2 0h1M1 33.5h1m1 0h2m1 0h2m2 0h2m1 0h2m1 0h2m1 0h1m1 0h1m2 0h2m4 0h2m2 0h2m3 0h2m1 0h3m2 0h5m4 0h1m1 0h3m1 0h1m1 0h1m2 0h1m2 0h1m1 0h3m2 0h1M1 34.5h3m2 0h1m2 0h2m2 0h8m1 0h1m1 0h2m1 0h4m2 0h6m1 0h1m3 0h1m3 0h1m4 0h2m1 0h3m5 0h3m2 0h2m6 0h1M1 35.5h1m1 0h1m3 0h5m1 0h1m1 0h2m2 0h1m5 0h2m1 0h5m2 0h3m1 0h6m1 0h2m1 0h4m5 0h2m5 0h1m1 0h1m2 0h1m1 0h1m1 0h1M1 36.5h3m1 0h2m1 0h5m1 0h2m1 0h2m2 0h2m1 0h3m1 0h1m1 0h2m3 0h1m1 0h2m1 0h2m1 0h3m2 0h2m1 0h1m3 0h1m1 0h1m2 0h1m1 0h1m1 0h2m3 0h1m2 0h4M2 37.5h6m1 0h1m2 0h1m1 0h1m1 0h1m2 0h4m1 0h1m1 0h3m3 0h5m6 0h1m1 0h5m3 0h2m1 0h1m1 0h1m2 0h1m2 0h1m3 0h1m2 0h1m2 0h1m2 0h1M1 38.5h2m1 0h3m2 0h4m1 0h1m2 0h1m3 0h1m3 0h2m3 0h1m2 0h1m3 0h1m2 0h1m3 0h2m3 0h3m1 0h5m5 0h1m1 0h1m2 0h3m1 0h2m2 0h1M2 39.5h1m2 0h3m1 0h2m1 0h1m4 0h1m2 0h2m1 0h3m2 0h2m2 0h1m3 0h1m4 0h1m9 0h4m2 0h1m1 0h3m1 0h4m1 0h2m4 0h1m1 0h2M1 40.5h1m1 0h1m1 0h2m2 0h1m1 0h4m2 0h1m4 0h1m1 0h2m4 0h2m2 0h3m1 0h1m1 0h6m1 0h1m2 0h1m1 0h1m2 0h1m1 0h2m1 0h1m2 0h3m1 0h2m1 0h2m1 0h2M1 41.5h1m1 0h8m1 0h1m1 0h1m4 0h1m1 0h6m1 0h3m1 0h2m4 0h4m1 0h1m1 0h2m1 0h1m2 0h2m2 0h4m1 0h1m3 0h1m1 0h1m1 0h2m2 0h1m4 0h1M1 42.5h4m1 0h1m1 0h5m1 0h2m1 0h1m3 0h3m2 0h1m1 0h2m1 0h2m1 0h2m1 0h1m1 0h1m1 0h2m1 0h1m1 0h2m2 0h1m1 0h4m4 0h4m1 0h2m4 0h4m2 0h1M2 43.5h2m1 0h1m1 0h1m2 0h1m2 0h3m5 0h3m1 0h1m2 0h1m5 0h1m1 0h3m1 0h1m3 0h3m2 0h10m2 0h2m1 0h2m1 0h3m5 0h3M1 44.5h1m2 0h2m2 0h8m1 0h1m3 0h1m1 0h1m4 0h3m6 0h2m1 0h3m1 0h1m2 0h2m1 0h1m1 0h1m1 0h5m2 0h2m5 0h1m4 0h1m1 0h1m1 0h1M2 45.5h1m2 0h1m1 0h1m4 0h1m1 0h1m3 0h1m1 0h1m3 0h2m1 0h2m3 0h5m2 0h3m2 0h2m1 0h1m2 0h3m1 0h2m2 0h5m1 0h2m1 0h4m1 0h1m1 0h1m1 0h1M1 46.5h1m1 0h2m1 0h1m2 0h2m2 0h1m1 0h4m2 0h1m1 0h1m5 0h1m5 0h5m1 0h1m3 0h1m6 0h2m2 0h2m4 0h1m1 0h3m2 0h2m1 0h3M3 47.5h7m1 0h4m1 0h2m1 0h1m2 0h2m1 0h5m1 0h1m1 0h1m1 0h2m2 0h2m2 0h2m1 0h7m1 0h2m3 0h3m1 0h3m1 0h8M1 48.5h3m1 0h1m3 0h2m2 0h1m2 0h2m1 0h2m2 0h3m3 0h5m2 0h1m2 0h2m1 0h4m1 0h1m3 0h1m2 0h2m1 0h2m7 0h1m2 0h1m3 0h1m2 0h1M3 49.5h1m1 0h1m1 0h1m1 0h1m1 0h1m2 0h1m7 0h1m2 0h1m1 0h1m1 0h1m3 0h4m1 0h1m1 0h2m1 0h1m3 0h1m1 0h1m1 0h1m1 0h2m4 0h1m3 0h1m5 0h1m1 0h1m1 0h1M1 50.5h5m3 0h3m3 0h1m3 0h1m5 0h1m3 0h1m1 0h2m6 0h1m3 0h1m3 0h1m3 0h2m2 0h4m1 0h1m1 0h3m1 0h1m1 0h2m3 0h5M1 51.5h3m1 0h9m1 0h2m1 0h1m4 0h1m1 0h6m5 0h3m1 0h3m1 0h1m1 0h9m1 0h1m1 0h1m2 0h1m3 0h1m3 0h5m1 0h1M1 52.5h1m2 0h1m1 0h1m2 0h4m2 0h3m1 0h1m3 0h1m2 0h5m2 0h1m2 0h3m1 0h1m2 0h1m1 0h1m1 0h1m1 0h6m3 0h3m3 0h5m1 0h3m1 0h1M2 53.5h3m1 0h2m3 0h2m2 0h3m7 0h1m6 0h2m1 0h1m1 0h3m1 0h1m2 0h3m2 0h2m1 0h1m1 0h1m1 0h1m1 0h1m1 0h3m3 0h5m1 0h2m1 0h2M1 54.5h2m2 0h2m2 0h4m2 0h2m5 0h1m1 0h2m1 0h6m7 0h3m3 0h3m1 0h1m2 0h3m2 0h7m2 0h1m2 0h1m1 0h1m4 0h1M1 55.5h1m1 0h2m2 0h1m2 0h1m1 0h1m2 0h1m1 0h6m1 0h1m1 0h1m1 0h1m1 0h2m1 0h7m1 0h5m3 0h1m1 0h1m1 0h2m1 0h4m2 0h1m3 0h1m1 0h5m1 0h1m1 0h2M1 56.5h3m2 0h1m2 0h2m1 0h2m2 0h2m1 0h3m1 0h2m2 0h3m1 0h4m3 0h1m2 0h1m1 0h1m1 0h1m3 0h2m1 0h1m1 0h2m2 0h1m2 0h1m2 0h2m4 0h1m2 0h3M4 57.5h2m1 0h2m1 0h2m2 0h1m4 0h1m1 0h1m2 0h3m3 0h2m7 0h2m2 0h3m1 0h4m1 0h1m2 0h2m1 0h3m2 0h1m1 0h1m2 0h1m1 0h5m2 0h1M4 58.5h2m2 0h4m2 0h1m4 0h2m1 0h1m1 0h1m4 0h2m1 0h3m1 0h2m2 0h2m4 0h2m1 0h2m1 0h1m1 0h1m1 0h2m1 0h1m2 0h1m1 0h3m1 0h1m1 0h6M1 59.5h1m3 0h1m1 0h1m4 0h2m3 0h6m2 0h1m2 0h1m1 0h3m4 0h2m1 0h3m1 0h1m1 0h1m2 0h1m1 0h2m2 0h1m1 0h4m3 0h1m2 0h2m2 0h1m2 0h1m1 0h1M10 60.5h2m1 0h1m1 0h1m1 0h2m3 0h2m3 0h2m1 0h3m1 0h4m1 0h2m1 0h6m2 0h1m4 0h1m7 0h3m2 0h2m2 0h2m1 0h1m1 0h1M2 61.5h1m2 0h5m1 0h3m1 0h1m2 0h2m1 0h2m1 0h3m1 0h1m5 0h3m2 0h2m2 0h1m1 0h5m1 0h1m2 0h1m3 0h1m1 0h2m1 0h2m6 0h2M5 62.5h2m2 0h4m2 0h3m3 0h1m4 0h1m3 0h1m4 0h1m2 0h1m1 0h1m1 0h5m1 0h1m1 0h3m1 0h2m1 0h1m2 0h2m2 0h2m1 0h2m1 0h3m3 0h2M2 63.5h1m1 0h5m3 0h2m5 0h3m4 0h1m3 0h1m1 0h1m1 0h1m2 0h1m11 0h1m1 0h1m1 0h2m2 0h1m1 0h1m1 0h1m2 0h1m6 0h1m2 0h3M1 64.5h1m2 0h2m3 0h1m1 0h1m1 0h4m5 0h1m2 0h1m3 0h4m3 0h1m1 0h1m1 0h1m1 0h2m2 0h1m1 0h3m1 0h2m2 0h1m1 0h1m2 0h1m1 0h3m3 0h2m3 0h1m1 0h1M1 65.5h1m1 0h1m1 0h1m1 0h3m1 0h2m1 0h2m1 0h3m2 0h2m2 0h1m1 0h1m3 0h2m4 0h2m3 0h1m1 0h2m2 0h2m5 0h3m2 0h1m2 0h3m1 0h1m4 0h3m1 0h1M1 66.5h1m1 0h1m4 0h1m2 0h1m2 0h1m6 0h2m2 0h1m1 0h2m1 0h1m1 0h1m2 0h2m2 0h1m2 0h3m2 0h1m1 0h1m1 0h3m1 0h1m1 0h1m1 0h1m3 0h1m1 0h1m2 0h2m1 0h2m1 0h1m1 0h1M2 67.5h1m2 0h3m1 0h1m2 0h1m1 0h2m1 0h3m1 0h2m1 0h1m1 0h3m1 0h1m1 0h3m2 0h3m2 0h2m4 0h6m7 0h1m1 0h2m1 0h4m2 0h2m1 0h1m1 0h1M5 68.5h1m2 0h3m1 0h2m6 0h2m1 0h2m4 0h2m1 0h1m1 0h1m3 0h1m1 0h3m4 0h3m1 0h1m2 0h1m1 0h3m2 0h2m9 0h5M2 69.5h4m1 0h2m1 0h1m1 0h1m2 0h2m3 0h1m1 0h1m1 0h6m1 0h6m2 0h1m1 0h1m1 0h3m1 0h5m1 0h4m7 0h2m2 0h6m1 0h1M9 70.5h2m2 0h2m3 0h1m2 0h1m1 0h1m1 0h1m3 0h1m1 0h1m1 0h2m1 0h5m5 0h2m3 0h1m3 0h1m3 0h1m1 0h2m1 0h3m2 0h1m3 0h2m1 0h1M1 71.5h7m1 0h1m1 0h1m1 0h1m1 0h1m1 0h2m3 0h1m2 0h1m1 0h1m1 0h1m4 0h1m1 0h1m7 0h2m1 0h1m1 0h1m1 0h3m1 0h1m1 0h1m2 0h2m1 0h2m3 0h2m1 0h1m1 0h1m2 0h1M1 72.5h1m5 0h1m3 0h2m1 0h1m2 0h1m1 0h3m1 0h3m3 0h2m1 0h2m4 0h1m2 0h1m2 0h4m3 0h3m1 0h1m1 0h2m1 0h1m1 0h6m1 0h1m3 0h2m1 0h2M1 73.5h1m1 0h3m1 0h1m1 0h3m1 0h4m1 0h2m4 0h6m1 0h1m3 0h2m3 0h2m4 0h6m1 0h3m1 0h1m1 0h3m1 0h1m1 0h1m3 0h6m1 0h1M1 74.5h1m1 0h3m1 0h1m1 0h1m4 0h5m2 0h1m1 0h2m2 0h1m4 0h3m4 0h1m3 0h1m1 0h6m1 0h2m1 0h6m1 0h5m3 0h3m1 0h3M1 75.5h1m1 0h3m1 0h1m1 0h2m1 0h6m3 0h1m1 0h1m1 0h1m1 0h1m2 0h1m1 0h1m2 0h3m4 0h1m2 0h1m3 0h1m1 0h2m2 0h1m2 0h2m2 0h1m1 0h3m1 0h2m1 0h2m3 0h1M1 76.5h1m5 0h1m1 0h1m1 0h2m4 0h2m4 0h3m1 0h2m4 0h4m1 0h1m3 0h1m2 0h5m1 0h1m1 0h4m3 0h2m2 0h4m2 0h1m1 0h2m2 0h2M1 77.5h7m1 0h1m3 0h2m1 0h3m8 0h1m1 0h1m2 0h1m1 0h1m2 0h3m3 0h1m1 0h3m3 0h1m2 0h1m3 0h1m3 0h1m3 0h2m2 0h1m4 0h2"/></svg>
